<svg width="170" height="49" viewBox="0 0 170 49" fill="none" xmlns="http://www.w3.org/2000/svg">
<rect y="0.612854" width="170" height="48" rx="5" fill="white"/>
<path d="M49.9315 32.6129V19.4129H59.1915V20.9129H51.5315V25.1729H57.4915V26.6729H51.5315V31.1129H59.4915V32.6129H49.9315ZM63.3454 22.6129L66.3254 26.7929L66.4254 26.9329L70.5254 32.6129H68.5654L65.4654 28.2729L65.2854 28.0529L61.3454 22.6129H63.3454ZM70.4654 22.6129L66.5054 27.9529H66.4054L62.9654 32.6129H61.1054L65.4654 26.8729H65.5854L68.5854 22.6129H70.4654ZM73.0495 36.8129V22.6129H74.4495L74.5895 25.0529L74.3695 24.7729C74.5428 24.3062 74.8028 23.8995 75.1495 23.5529C75.4961 23.1929 75.9161 22.9129 76.4095 22.7129C76.9028 22.5129 77.4361 22.4129 78.0095 22.4129C78.8228 22.4129 79.5695 22.6195 80.2495 23.0329C80.9428 23.4462 81.4961 24.0395 81.9095 24.8129C82.3228 25.5862 82.5295 26.5195 82.5295 27.6129C82.5295 28.6929 82.3161 29.6262 81.8895 30.4129C81.4761 31.1862 80.9228 31.7795 80.2295 32.1929C79.5361 32.6062 78.7761 32.8129 77.9495 32.8129C77.1228 32.8129 76.3961 32.6129 75.7695 32.2129C75.1561 31.7995 74.7161 31.2795 74.4495 30.6529L74.6495 30.3529V36.8129H73.0495ZM77.7895 31.4129C78.7761 31.4129 79.5428 31.0662 80.0895 30.3729C80.6495 29.6795 80.9295 28.7595 80.9295 27.6129C80.9295 26.4662 80.6561 25.5462 80.1095 24.8529C79.5761 24.1595 78.8228 23.8129 77.8495 23.8129C77.2095 23.8129 76.6495 23.9729 76.1695 24.2929C75.6895 24.5995 75.3161 25.0395 75.0495 25.6129C74.7828 26.1729 74.6495 26.8395 74.6495 27.6129C74.6495 28.3729 74.7761 29.0395 75.0295 29.6129C75.2961 30.1862 75.6628 30.6329 76.1295 30.9529C76.6095 31.2595 77.1628 31.4129 77.7895 31.4129ZM87.1085 18.0129V30.0729C87.1085 30.5795 87.2018 30.9329 87.3885 31.1329C87.5752 31.3195 87.8752 31.4129 88.2885 31.4129C88.5552 31.4129 88.7752 31.3929 88.9485 31.3529C89.1218 31.3129 89.3552 31.2395 89.6485 31.1329L89.3885 32.5329C89.1752 32.6262 88.9418 32.6929 88.6885 32.7329C88.4352 32.7862 88.1752 32.8129 87.9085 32.8129C87.0952 32.8129 86.4885 32.5929 86.0885 32.1529C85.7018 31.7129 85.5085 31.0395 85.5085 30.1329V18.0129H87.1085ZM95.8418 22.4129C96.7885 22.4129 97.6218 22.6195 98.3418 23.0329C99.0751 23.4462 99.6485 24.0462 100.062 24.8329C100.475 25.6062 100.682 26.5329 100.682 27.6129C100.682 28.6929 100.475 29.6262 100.062 30.4129C99.6485 31.1862 99.0751 31.7795 98.3418 32.1929C97.6218 32.6062 96.7885 32.8129 95.8418 32.8129C94.9085 32.8129 94.0751 32.6062 93.3418 32.1929C92.6085 31.7795 92.0351 31.1862 91.6218 30.4129C91.2085 29.6262 91.0018 28.6929 91.0018 27.6129C91.0018 26.5329 91.2085 25.6062 91.6218 24.8329C92.0351 24.0462 92.6085 23.4462 93.3418 23.0329C94.0751 22.6195 94.9085 22.4129 95.8418 22.4129ZM95.8418 23.7929C95.1618 23.7929 94.5818 23.9462 94.1018 24.2529C93.6218 24.5595 93.2485 24.9995 92.9818 25.5729C92.7285 26.1329 92.6018 26.8129 92.6018 27.6129C92.6018 28.3995 92.7285 29.0795 92.9818 29.6529C93.2485 30.2262 93.6218 30.6662 94.1018 30.9729C94.5818 31.2795 95.1618 31.4329 95.8418 31.4329C96.5218 31.4329 97.1018 31.2795 97.5818 30.9729C98.0618 30.6662 98.4285 30.2262 98.6818 29.6529C98.9485 29.0795 99.0818 28.3995 99.0818 27.6129C99.0818 26.8129 98.9485 26.1329 98.6818 25.5729C98.4285 24.9995 98.0618 24.5595 97.5818 24.2529C97.1018 23.9462 96.5218 23.7929 95.8418 23.7929ZM103.694 32.6129V22.6129H104.994L105.214 24.2529C105.494 23.6395 105.901 23.1795 106.434 22.8729C106.981 22.5662 107.641 22.4129 108.414 22.4129C108.587 22.4129 108.774 22.4262 108.974 22.4529C109.187 22.4795 109.367 22.5329 109.514 22.6129L109.234 24.0729C109.087 24.0195 108.927 23.9795 108.754 23.9529C108.581 23.9262 108.334 23.9129 108.014 23.9129C107.601 23.9129 107.181 24.0329 106.754 24.2729C106.341 24.5129 105.994 24.8795 105.714 25.3729C105.434 25.8529 105.294 26.4662 105.294 27.2129V32.6129H103.694ZM115.726 32.8129C114.779 32.8129 113.932 32.6062 113.186 32.1929C112.452 31.7795 111.879 31.1862 111.466 30.4129C111.052 29.6262 110.846 28.6929 110.846 27.6129C110.846 26.5329 111.052 25.6062 111.466 24.8329C111.879 24.0462 112.446 23.4462 113.166 23.0329C113.886 22.6195 114.706 22.4129 115.626 22.4129C116.559 22.4129 117.352 22.6129 118.006 23.0129C118.672 23.4129 119.179 23.9595 119.526 24.6529C119.872 25.3329 120.046 26.0995 120.046 26.9529C120.046 27.1795 120.039 27.3862 120.026 27.5729C120.012 27.7595 119.992 27.9262 119.966 28.0729H111.886V26.6529H119.266L118.446 26.8129C118.446 25.8529 118.179 25.1129 117.646 24.5929C117.126 24.0729 116.439 23.8129 115.586 23.8129C114.932 23.8129 114.366 23.9662 113.886 24.2729C113.419 24.5662 113.052 24.9995 112.786 25.5729C112.532 26.1329 112.406 26.8129 112.406 27.6129C112.406 28.3995 112.539 29.0795 112.806 29.6529C113.072 30.2262 113.446 30.6662 113.926 30.9729C114.419 31.2662 115.006 31.4129 115.686 31.4129C116.419 31.4129 117.012 31.2729 117.466 30.9929C117.932 30.7129 118.306 30.3329 118.586 29.8529L119.846 30.5929C119.592 31.0462 119.266 31.4395 118.866 31.7729C118.479 32.1062 118.019 32.3662 117.486 32.5529C116.966 32.7262 116.379 32.8129 115.726 32.8129Z" fill="black"/>
</svg>
